{"title":"Eureka.S05E13.DVDRip.XviD-INQUISITION","uid":7431813,"size":366938112,"categoryP":"video","categoryS":"tv_shows","magnet":"?xt=urn:btih:49eb944bc64c2141bfc4f4377b7dbf284a3c33ab&amp;dn=Eureka.S05E13.DVDRip.XviD-INQUISITION&amp;tr=udp%3A%2F%2Ftracker.openbittorrent.com%3A80&amp;tr=udp%3A%2F%2Fopen.demonii.com%3A1337&amp;tr=udp%3A%2F%2Ftracker.coppersurfer.tk%3A6969&amp;tr=udp%3A%2F%2Fexodus.desync.com%3A6969","seeders":0,"leechers":2,"uploader":"FaMoUz","files":-1,"time":1341965768,"description":"\n\n\n\n\n\n\n\n\n\n\n\n\n\n\n\n\n\n\n\n\n                      Eureka.S05E13.DVDRip.XviD-INQUISITION\n                      _____________________________________\n\n\n\n\n\n\n\n\n\n\n\n\n\nEpisode Name: Just Another Day...\nSeason: 5\nEpisode: 13\nAired: 2012-07-16\n\nEpisode Overview:\nWormholes randomly materialize around Eureka as the Department of Defense is set to shut the town.\n\n\nGeneral\nComplete name : eureka.s05e13.dvdrip.xvid-inquisition.avi\nFormat : AVI\nFormat/Info : Audio Video Interleave\nFile size : 350 MiB\nDuration : 43mn 18s\nOverall bit rate mode : Variable\nOverall bit rate : 1 130 Kbps\nWriting application : Nandub v1.0rc2\nWriting library : Nandub build 1852/release\nVideo\nID : 0\nFormat : MPEG-4 Visual\nFormat profile : Advanced Simple@L5\nFormat settings, BVOP : No\nFormat settings, QPel : No\nFormat settings, GMC : No warppoints\nFormat settings, Matrix : Default (H.263)\nCodec ID : XVID\nCodec ID/Hint : XviD\nDuration : 43mn 18s\nBit rate : 999 Kbps\nWidth : 624 pixels\nHeight : 352 pixels\nDisplay aspect ratio : 16:9\nFrame rate : 23.976 fps\nColor space : YUV\nChroma subsampling : 4:2:0\nBit depth : 8 bits\nScan type : Progressive\nCompression mode : Lossy\nBits/(Pixel*Frame) : 0.190\nStream size : 310 MiB (88%)\nWriting library : XviD 1.2.1 (UTC 2008-12-04)\nAudio\nID : 1\nFormat : MPEG Audio\nFormat version : Version 1\nFormat profile : Layer 3\nMode : Joint stereo\nMode extension : MS Stereo\nCodec ID : 55\nCodec ID/Hint : MP3\nDuration : 43mn 18s\nBit rate mode : Variable\nBit rate : 118 Kbps\nNominal bit rate : 128 Kbps\nChannel(s) : 2 channels\nSampling rate : 48.0 KHz\nCompression mode : Lossy\nStream size : 36.5 MiB (10%)\nAlignment : Aligned on interleaves\nInterleave, duration : 24 ms (0.58 video frame)\nInterleave, preload duration : 150 ms\nWriting library : LAME3.99r\nEncoding settings : -m j -V 4 -q 2 -lowpass 17 --abr 128\n\n\n\n\n\n\nTHNKZ 2 THE ORIGINAL UPLOADER\n\n\n\n\n\n\nPLZ HELP SEED &amp; ENJOY SEASON 5 EPISODES 12 OF EUREKA...\n\n\n\n\n\n\n\n\n\n\n                        4 MORE TV SERIES N COMPLETE SEASONS\n\n                       ************************************ \n                      &lt;a href=&quot; http://thepiratebay.se/user/FaMoUz/&quot; rel=&quot;nofollow&quot; target=&quot;_NEW&quot;&gt; http://thepiratebay.se/user/FaMoUz/&lt;/a&gt;\n                       ************************************\n\n\n\n\n\n\n\n     FFFFFFFFF\n     FFFFFFFFF      AA         MMMM   MMMM    OOOOOO    UU     UU   ZZZZZZZZZZ\n     FF            AAAA        MM MM MM MM   OO    OO   UU     UU   ZZZZZZZZZZ\n     FFFFFFF      AA  AA       MM  MMM  MM   OO    OO   UU     UU         ZZZ\n     FFFFFFF     AA    AA      MM   M   MM   OO    OO   UU     UU       ZZZ\n     FF         AAAAAAAAAA     MM       MM   OO    OO   UU     UU     ZZZ\n     FF        AA        AA    MM       MM   OO    OO   UU     UU    ZZZZZZZZZ\n     FF       AA          AA   MM       MM    OOOOOO     UUUUUUU     ZZZZZZZZZ\n\n\t\t\t\t\t\t\t\t\n\n\t\t\t","torrent":{"xt":"urn:btih:49eb944bc64c2141bfc4f4377b7dbf284a3c33ab","amp;dn":"Eureka.S05E13.DVDRip.XviD-INQUISITION","amp;tr":["udp%3A%2F%2Ftracker.openbittorrent.com%3A80","udp%3A%2F%2Fopen.demonii.com%3A1337","udp%3A%2F%2Ftracker.coppersurfer.tk%3A6969","udp%3A%2F%2Fexodus.desync.com%3A6969"],"infoHash":"49eb944bc64c2141bfc4f4377b7dbf284a3c33ab","infoHashBuffer":{"type":"Buffer","data":[73,235,148,75,198,76,33,65,191,196,244,55,123,125,191,40,74,60,51,171]},"announce":[],"urlList":[]}}